<svg xmlns="http://www.w3.org/2000/svg" viewBox="0 0 960 520" font-family="-apple-system, system-ui, Segoe UI, Roboto, sans-serif" font-size="13">
  <rect data-bg="true" width="100%" height="100%" fill="#ffffff"/>
  <defs>
    <marker id="arr" viewBox="0 0 10 10" refX="9" refY="5" markerWidth="7" markerHeight="7" orient="auto-start-reverse">
      <path d="M0,0 L10,5 L0,10 z" fill="#1f2937"/>
    </marker>
    <linearGradient id="layA" x1="0" x2="0" y1="0" y2="1"><stop offset="0" stop-color="#dbeafe"/><stop offset="1" stop-color="#bfdbfe"/></linearGradient>
    <linearGradient id="layB" x1="0" x2="0" y1="0" y2="1"><stop offset="0" stop-color="#fef3c7"/><stop offset="1" stop-color="#fde68a"/></linearGradient>
    <linearGradient id="layC" x1="0" x2="0" y1="0" y2="1"><stop offset="0" stop-color="#dcfce7"/><stop offset="1" stop-color="#bbf7d0"/></linearGradient>
    <linearGradient id="layD" x1="0" x2="0" y1="0" y2="1"><stop offset="0" stop-color="#fae8ff"/><stop offset="1" stop-color="#f5d0fe"/></linearGradient>
  </defs>

  <text x="480" y="28" text-anchor="middle" font-weight="700" font-size="18" fill="#111827">A2A + MCP Dual Protocol Reference Agent — Architecture</text>
  <text x="480" y="48" text-anchor="middle" fill="#6b7280">Other agents discover this service via /.well-known/agent-card.json and hire it for research tasks</text>

  <!-- Caller -->
  <rect x="30" y="80" width="180" height="80" rx="10" fill="url(#layA)" stroke="#1f2937"/>
  <text x="120" y="105" text-anchor="middle" font-weight="600">A2A Caller</text>
  <text x="120" y="125" text-anchor="middle" fill="#374151">Other agent / curl</text>
  <text x="120" y="143" text-anchor="middle" fill="#374151" font-size="11">POST /tasks/send</text>

  <!-- A2A Server -->
  <rect x="270" y="70" width="220" height="100" rx="10" fill="url(#layB)" stroke="#1f2937"/>
  <text x="380" y="92" text-anchor="middle" font-weight="600">A2A Server (FastAPI :8000)</text>
  <text x="380" y="113" text-anchor="middle" fill="#374151">/.well-known/agent-card.json</text>
  <text x="380" y="131" text-anchor="middle" fill="#374151">/tasks/send · /tasks/{id}</text>
  <text x="380" y="153" text-anchor="middle" fill="#374151" font-size="11">a2a_server.py</text>

  <!-- Agent Loop -->
  <rect x="550" y="70" width="220" height="100" rx="10" fill="url(#layC)" stroke="#1f2937"/>
  <text x="660" y="92" text-anchor="middle" font-weight="600">Agent reasoning loop</text>
  <text x="660" y="113" text-anchor="middle" fill="#374151">plan → tool-call → observe</text>
  <text x="660" y="131" text-anchor="middle" fill="#374151">→ reply</text>
  <text x="660" y="153" text-anchor="middle" fill="#374151" font-size="11">agent.py</text>

  <!-- DeepSeek -->
  <rect x="820" y="80" width="120" height="80" rx="10" fill="url(#layD)" stroke="#1f2937"/>
  <text x="880" y="105" text-anchor="middle" font-weight="600">DeepSeek</text>
  <text x="880" y="125" text-anchor="middle" fill="#374151" font-size="11">v4-flash</text>
  <text x="880" y="143" text-anchor="middle" fill="#374151" font-size="11">via OpenRouter</text>

  <!-- MCP Client -->
  <rect x="550" y="220" width="220" height="80" rx="10" fill="url(#layC)" stroke="#1f2937"/>
  <text x="660" y="245" text-anchor="middle" font-weight="600">MCP Client</text>
  <text x="660" y="265" text-anchor="middle" fill="#374151">stdio multiplexer</text>
  <text x="660" y="283" text-anchor="middle" fill="#374151" font-size="11">mcp_client.py</text>

  <!-- MCP Servers -->
  <rect x="270" y="330" width="200" height="60" rx="10" fill="url(#layB)" stroke="#1f2937"/>
  <text x="370" y="352" text-anchor="middle" font-weight="600">web_search.py</text>
  <text x="370" y="370" text-anchor="middle" fill="#374151" font-size="11">stdio MCP server</text>

  <rect x="500" y="330" width="200" height="60" rx="10" fill="url(#layB)" stroke="#1f2937"/>
  <text x="600" y="352" text-anchor="middle" font-weight="600">file_system.py</text>
  <text x="600" y="370" text-anchor="middle" fill="#374151" font-size="11">stdio MCP server</text>

  <rect x="730" y="330" width="200" height="60" rx="10" fill="url(#layB)" stroke="#1f2937"/>
  <text x="830" y="352" text-anchor="middle" font-weight="600">github.py</text>
  <text x="830" y="370" text-anchor="middle" fill="#374151" font-size="11">stdio MCP server</text>

  <!-- Gradio UI -->
  <rect x="30" y="220" width="180" height="170" rx="10" fill="url(#layD)" stroke="#1f2937"/>
  <text x="120" y="245" text-anchor="middle" font-weight="600">Gradio UI :7860</text>
  <text x="120" y="270" text-anchor="middle" fill="#374151" font-size="11">A2A handshake log</text>
  <text x="120" y="290" text-anchor="middle" fill="#374151" font-size="11">MCP tool-call timeline</text>
  <text x="120" y="310" text-anchor="middle" fill="#374151" font-size="11">Reasoning stream</text>
  <text x="120" y="345" text-anchor="middle" fill="#374151" font-size="11">ui.py</text>

  <!-- arrows -->
  <line x1="210" y1="120" x2="270" y2="120" stroke="#1f2937" stroke-width="1.6" marker-end="url(#arr)"/>
  <line x1="490" y1="120" x2="550" y2="120" stroke="#1f2937" stroke-width="1.6" marker-end="url(#arr)"/>
  <line x1="770" y1="120" x2="820" y2="120" stroke="#1f2937" stroke-width="1.6" marker-end="url(#arr)"/>
  <line x1="660" y1="170" x2="660" y2="220" stroke="#1f2937" stroke-width="1.6" marker-end="url(#arr)"/>
  <line x1="600" y1="300" x2="380" y2="330" stroke="#1f2937" stroke-width="1.6" marker-end="url(#arr)"/>
  <line x1="660" y1="300" x2="600" y2="330" stroke="#1f2937" stroke-width="1.6" marker-end="url(#arr)"/>
  <line x1="720" y1="300" x2="830" y2="330" stroke="#1f2937" stroke-width="1.6" marker-end="url(#arr)"/>
  <line x1="120" y1="220" x2="270" y2="170" stroke="#9ca3af" stroke-width="1.4" stroke-dasharray="4 3"/>
  <line x1="210" y1="280" x2="550" y2="260" stroke="#9ca3af" stroke-width="1.4" stroke-dasharray="4 3"/>

  <!-- legend -->
  <rect x="30" y="450" width="14" height="14" fill="url(#layA)" stroke="#1f2937"/><text x="50" y="462">External caller</text>
  <rect x="170" y="450" width="14" height="14" fill="url(#layB)" stroke="#1f2937"/><text x="190" y="462">Protocol layer (A2A / MCP)</text>
  <rect x="380" y="450" width="14" height="14" fill="url(#layC)" stroke="#1f2937"/><text x="400" y="462">Agent / orchestration</text>
  <rect x="560" y="450" width="14" height="14" fill="url(#layD)" stroke="#1f2937"/><text x="580" y="462">LLM / UI</text>
</svg>
