<svg xmlns="http://www.w3.org/2000/svg" viewBox="0 0 960 560" font-family="-apple-system, system-ui, Segoe UI, Roboto, sans-serif" font-size="12">
  <rect data-bg="true" width="100%" height="100%" fill="#ffffff"/>
  <defs>
    <marker id="arr2" viewBox="0 0 10 10" refX="9" refY="5" markerWidth="7" markerHeight="7" orient="auto-start-reverse">
      <path d="M0,0 L10,5 L0,10 z" fill="#1f2937"/>
    </marker>
  </defs>

  <text x="480" y="28" text-anchor="middle" font-weight="700" font-size="18" fill="#111827">A2A → Agent → MCP : sequence of one task</text>

  <!-- swimlanes -->
  <g font-weight="600" text-anchor="middle">
    <rect x="40" y="60" width="140" height="32" rx="6" fill="#dbeafe" stroke="#1f2937"/><text x="110" y="81">Caller</text>
    <rect x="220" y="60" width="140" height="32" rx="6" fill="#fef3c7" stroke="#1f2937"/><text x="290" y="81">A2A Server</text>
    <rect x="400" y="60" width="140" height="32" rx="6" fill="#dcfce7" stroke="#1f2937"/><text x="470" y="81">Agent</text>
    <rect x="580" y="60" width="140" height="32" rx="6" fill="#fae8ff" stroke="#1f2937"/><text x="650" y="81">DeepSeek</text>
    <rect x="760" y="60" width="160" height="32" rx="6" fill="#fef3c7" stroke="#1f2937"/><text x="840" y="81">MCP Server</text>
  </g>

  <!-- lifelines -->
  <g stroke="#9ca3af" stroke-width="1" stroke-dasharray="3 4">
    <line x1="110" y1="92" x2="110" y2="540"/>
    <line x1="290" y1="92" x2="290" y2="540"/>
    <line x1="470" y1="92" x2="470" y2="540"/>
    <line x1="650" y1="92" x2="650" y2="540"/>
    <line x1="840" y1="92" x2="840" y2="540"/>
  </g>

  <!-- messages -->
  <g stroke="#1f2937" stroke-width="1.4">
    <line x1="110" y1="120" x2="288" y2="120" marker-end="url(#arr2)"/>
    <text x="200" y="115" text-anchor="middle" fill="#1f2937">POST /tasks/send {message}</text>

    <line x1="290" y1="160" x2="468" y2="160" marker-end="url(#arr2)"/>
    <text x="380" y="155" text-anchor="middle">dispatch task</text>

    <line x1="470" y1="200" x2="648" y2="200" marker-end="url(#arr2)"/>
    <text x="560" y="195" text-anchor="middle">chat_completion(messages, tools)</text>

    <line x1="648" y1="240" x2="472" y2="240" marker-end="url(#arr2)"/>
    <text x="560" y="235" text-anchor="middle">{tool_call: web_search}</text>

    <line x1="470" y1="280" x2="838" y2="280" marker-end="url(#arr2)"/>
    <text x="650" y="275" text-anchor="middle">tools/call web_search(query)</text>

    <line x1="838" y1="320" x2="472" y2="320" marker-end="url(#arr2)"/>
    <text x="650" y="315" text-anchor="middle">[{title, link, snippet}…]</text>

    <line x1="470" y1="360" x2="648" y2="360" marker-end="url(#arr2)"/>
    <text x="560" y="355" text-anchor="middle">chat_completion(messages + tool_result)</text>

    <line x1="648" y1="400" x2="472" y2="400" marker-end="url(#arr2)"/>
    <text x="560" y="395" text-anchor="middle">final assistant message</text>

    <line x1="470" y1="440" x2="292" y2="440" marker-end="url(#arr2)"/>
    <text x="380" y="435" text-anchor="middle">return result</text>

    <line x1="290" y1="480" x2="112" y2="480" marker-end="url(#arr2)"/>
    <text x="200" y="475" text-anchor="middle">200 OK {status: completed, result}</text>
  </g>

  <text x="480" y="525" text-anchor="middle" fill="#6b7280">Mock mode short-circuits the DeepSeek + MCP calls with deterministic canned responses for tests.</text>
</svg>
